<svg width="250" height="251" viewBox="0 0 250 251" fill="none" xmlns="http://www.w3.org/2000/svg">
<path d="M83.8333 94.7497C83.8333 83.8311 88.1705 73.3597 95.8908 65.639C103.611 57.9184 114.082 53.581 125 53.581C135.918 53.581 146.389 57.9184 154.109 65.639C161.829 73.3597 166.167 83.8311 166.167 94.7497C166.167 105.668 161.829 116.14 154.109 123.86C146.389 131.581 135.918 135.918 125 135.918C114.082 135.918 103.611 131.581 95.8908 123.86C88.1705 116.14 83.8333 105.668 83.8333 94.7497ZM64.2278 111.374C67.5723 123.599 74.5243 134.525 84.1666 142.731C51.2786 154.621 30.75 180.638 30.75 209.339C30.75 212.234 31.9001 215.011 33.9474 217.058C35.9947 219.106 38.7714 220.256 41.6667 220.256C44.562 220.256 47.3386 219.106 49.3859 217.058C51.4332 215.011 52.5833 212.234 52.5833 209.339C52.5833 186.053 76.7972 157.753 125 157.753C173.203 157.753 197.417 186.053 197.417 209.339C197.417 212.234 198.567 215.011 200.614 217.058C202.661 219.106 205.438 220.256 208.333 220.256C211.229 220.256 214.005 219.106 216.053 217.058C218.1 215.011 219.25 212.234 219.25 209.339C219.25 180.638 198.742 154.621 165.823 142.73C175.465 134.525 182.417 123.599 185.762 111.374C189.183 98.8663 188.663 85.6077 184.27 73.4073C179.878 61.2068 171.829 50.6588 161.22 43.2026C150.612 35.7465 137.961 31.7454 124.995 31.7454C112.028 31.7454 99.3778 35.7465 88.7693 43.2026C78.1609 50.6588 70.1113 61.2068 65.7192 73.4073C61.327 85.6077 60.8062 98.8663 64.2278 111.374Z" fill="black" stroke="black"/>
</svg>
